<?xml version="1.0" standalone="no"?>
<!DOCTYPE svg PUBLIC "-//W3C//DTD SVG 20010904//EN"
 "http://www.w3.org/TR/2001/REC-SVG-20010904/DTD/svg10.dtd">
<svg version="1.0" xmlns="http://www.w3.org/2000/svg"
 width="752.000000pt" height="752.000000pt" viewBox="0 0 752.000000 752.000000"
 preserveAspectRatio="xMidYMid meet">

<g transform="translate(0.000000,752.000000) scale(0.100000,-0.100000)"
fill="#000000" stroke="none">
<path d="M3580 6015 c-368 -58 -697 -294 -869 -624 -80 -155 -131 -345 -131
-493 l0 -70 -50 -45 c-102 -91 -157 -267 -147 -467 12 -234 93 -393 227 -443
l53 -20 32 -89 c103 -290 293 -554 505 -703 496 -348 1091 -201 1457 360 62
96 127 228 168 343 l32 89 53 20 c134 50 215 209 227 443 10 200 -45 376 -147
467 l-50 45 0 71 c0 204 -93 467 -231 651 -263 352 -700 532 -1129 465z m376
-204 c196 -40 370 -137 509 -283 132 -137 205 -267 252 -447 20 -78 25 -123
26 -239 l2 -144 28 -24 c15 -13 38 -24 51 -24 107 0 158 -357 75 -521 -30 -60
-41 -67 -99 -61 -68 6 -93 -17 -120 -112 -126 -441 -388 -753 -720 -858 -108
-33 -292 -33 -400 0 -332 105 -593 416 -720 859 -27 95 -53 117 -127 110 -49
-5 -54 -3 -72 21 -41 58 -56 130 -56 267 0 100 4 142 18 183 23 66 61 112 92
112 13 0 37 11 52 24 l28 24 2 144 c1 116 6 161 26 239 49 189 135 337 276
471 140 136 297 220 481 259 115 24 279 24 396 0z"/>
<path d="M3656 5230 c-63 -16 -155 -71 -193 -114 -57 -65 -86 -139 -91 -229
-4 -75 -3 -79 24 -108 38 -40 94 -41 133 -1 22 21 29 40 35 89 8 76 37 121 96
151 90 45 217 19 267 -56 12 -18 25 -57 28 -87 7 -52 -6 -160 -25 -209 -15
-39 -67 -92 -148 -150 -92 -64 -120 -92 -166 -170 -40 -66 -61 -151 -51 -203
14 -77 108 -111 160 -59 24 24 28 36 40 108 8 53 60 115 140 171 190 131 251
252 243 486 -3 99 -7 124 -29 171 -40 84 -90 135 -174 176 -65 32 -84 37 -162
40 -48 2 -105 -1 -127 -6z"/>
<path d="M3625 3851 c-36 -15 -60 -51 -60 -91 0 -98 129 -134 178 -51 49 83
-30 178 -118 142z"/>
<path d="M2470 3021 c-168 -59 -343 -127 -390 -151 -238 -125 -436 -329 -555
-574 -95 -195 -140 -408 -133 -634 l3 -114 33 -29 32 -29 2300 0 2300 0 32 29
33 29 -1 164 c0 111 -6 191 -18 253 -50 261 -176 499 -360 680 -173 170 -318
248 -733 390 -208 72 -289 96 -309 91 -14 -4 -70 -48 -123 -99 -244 -234 -513
-348 -821 -348 -305 0 -579 115 -815 342 -93 90 -121 109 -152 108 -10 0 -155
-49 -323 -108z m373 -177 c248 -230 586 -364 917 -364 331 0 669 134 917 364
39 36 76 66 81 66 29 0 518 -178 587 -213 337 -175 560 -519 582 -899 l6 -108
-2173 0 -2173 0 6 108 c22 383 252 735 589 902 77 38 546 208 577 210 7 0 45
-30 84 -66z"/>
</g>
</svg>
