<?xml version="1.0" standalone="no"?>
<!DOCTYPE svg PUBLIC "-//W3C//DTD SVG 20010904//EN"
 "http://www.w3.org/TR/2001/REC-SVG-20010904/DTD/svg10.dtd">
<svg version="1.0" xmlns="http://www.w3.org/2000/svg"
 width="512.000000pt" height="512.000000pt" viewBox="0 0 512.000000 512.000000"
 preserveAspectRatio="xMidYMid meet">

<g transform="translate(0.000000,512.000000) scale(0.100000,-0.100000)"
fill="#000000" stroke="none">
<path d="M2543 4252 c-192 -166 -465 -507 -586 -732 -88 -164 -84 -235 20
-407 283 -464 419 -714 522 -959 76 -181 81 -152 -56 -301 -173 -188 -283
-322 -396 -485 l-46 -66 77 35 c200 92 352 127 547 126 197 0 343 -35 534
-124 46 -21 86 -39 88 -39 9 0 -111 165 -202 281 -94 117 -168 201 -283 321
-51 52 -65 73 -64 96 0 15 26 89 58 163 103 242 268 549 472 874 114 182 125
211 120 309 -3 66 -10 93 -37 146 -46 91 -184 295 -288 425 -145 182 -360 395
-398 395 -8 0 -45 -26 -82 -58z"/>
<path d="M1080 3147 c0 -3 37 -43 83 -89 283 -282 538 -805 633 -1295 22 -114
54 -349 54 -395 0 -34 17 -18 75 70 89 134 187 260 332 430 73 84 133 158 133
163 0 17 -77 191 -126 284 -225 432 -543 698 -960 804 -81 21 -224 39 -224 28z"/>
<path d="M4016 3134 c-434 -78 -810 -380 -1035 -830 -54 -109 -121 -260 -121
-275 0 -5 35 -49 78 -97 169 -189 352 -425 419 -539 14 -24 30 -42 37 -40 6 2
14 44 18 103 28 387 175 852 384 1211 91 156 186 281 293 389 45 45 81 84 81
88 0 10 -68 5 -154 -10z"/>
<path d="M2515 1314 c-70 -12 -198 -45 -228 -60 -48 -24 -87 -65 -87 -90 0
-47 56 -80 187 -111 117 -27 398 -24 507 5 85 24 140 53 156 83 27 50 -56 113
-197 150 -77 20 -273 33 -338 23z"/>
</g>
</svg>
